<?xml version="1.0" encoding="UTF-8"?>
<svg width="75px" height="66px" viewBox="0 0 75 66" version="1.1" xmlns="http://www.w3.org/2000/svg" xmlns:xlink="http://www.w3.org/1999/xlink">
    <title>Shape</title>
    <defs>
        <linearGradient x1="8.923%" y1="50%" x2="91.871%" y2="50%" id="linearGradient-1">
            <stop stop-color="#7CB7FF" offset="0%"></stop>
            <stop stop-color="#BA6DF6" offset="100%"></stop>
        </linearGradient>
    </defs>
    <g id="diagrams" stroke="none" stroke-width="1" fill="none" fill-rule="evenodd">
        <g id="referral-service" transform="translate(-1452.000000, -261.000000)" fill="url(#linearGradient-1)" fill-rule="nonzero">
            <path d="M1497.05441,261.619745 L1489.91758,268.853578 L1491.36646,270.322149 C1492.17916,271.144923 1493.4958,271.144923 1494.3085,270.322149 L1501.44533,263.088316 L1499.99646,261.619745 C1499.60698,261.223034 1499.07759,261 1498.52543,261 C1497.97328,261 1497.44389,261.223034 1497.05441,261.619745 Z M1479.00354,261.619745 L1477.56099,263.088316 L1484.69782,270.322149 C1485.51053,271.144923 1486.82716,271.144923 1487.63987,270.322149 L1489.08242,268.853578 L1481.94559,261.619745 C1481.55611,261.223034 1481.02672,261 1480.47457,261 C1479.92241,261 1479.39302,261.223034 1479.00354,261.619745 L1479.00354,261.619745 Z M1503.77999,271.085293 L1490.29087,284.751337 L1493.02413,287.521741 C1494.55979,289.07249 1497.04355,289.07249 1498.57921,287.521741 L1512.06833,273.855697 L1509.33508,271.085293 C1508.59912,270.337308 1507.59975,269.916924 1506.55753,269.916924 C1505.51532,269.916924 1504.51595,270.337308 1503.77999,271.085293 L1503.77999,271.085293 Z M1469.66492,271.085293 L1466.938,273.855697 L1480.42079,287.515328 C1481.95718,289.070341 1484.4458,289.070341 1485.9822,287.515328 L1488.70913,284.75775 L1475.22634,271.085293 C1474.49013,270.33534 1473.4894,269.913705 1472.44563,269.913705 C1471.40186,269.913705 1470.40113,270.33534 1469.66492,271.085293 L1469.66492,271.085293 Z M1488.03214,270.764644 L1486.58326,272.239628 L1489.5,275.189595 L1492.41674,272.239628 L1490.97419,270.764644 C1490.58471,270.367933 1490.05532,270.144899 1489.50316,270.144899 C1488.95101,270.144899 1488.42161,270.367933 1488.03214,270.764644 L1488.03214,270.764644 Z M1513.22617,284.392211 L1490.81601,307.113372 L1495.35245,311.711474 C1497.90419,314.29477 1502.03811,314.29477 1504.58984,311.711474 L1527,288.996725 L1522.46356,284.398624 C1521.24057,283.153274 1519.57844,282.453159 1517.84486,282.453159 C1516.11129,282.453159 1514.44916,283.153274 1513.22617,284.398624 L1513.22617,284.392211 Z M1456.53644,284.392211 L1452,288.990312 L1474.41016,311.705061 C1476.96189,314.288357 1481.09581,314.288357 1483.64755,311.705061 L1488.19032,307.106959 L1465.77383,284.392211 C1464.55084,283.146861 1462.88871,282.446746 1461.15514,282.446746 C1459.42156,282.446746 1457.75943,283.146861 1456.53644,284.392211 Z M1486.71613,288.368254 L1483.99553,291.138658 L1489.5,296.724357 L1495.0108,291.145071 L1492.28387,288.374667 C1491.54741,287.622741 1490.54532,287.199852 1489.5,287.199852 C1488.45468,287.199852 1487.45259,287.622741 1486.71613,288.374667 L1486.71613,288.368254 Z M1484.88131,313.122328 L1480.34486,317.720429 L1489.5,327 L1498.65514,317.720429 L1494.11869,313.122328 C1492.89571,311.876978 1491.23358,311.176863 1489.5,311.176863 C1487.76642,311.176863 1486.10429,311.876978 1484.88131,313.122328 L1484.88131,313.122328 Z" id="Shape"></path>
        </g>
    </g>
</svg>