<svg xmlns="http://www.w3.org/2000/svg" xmlns:xlink="http://www.w3.org/1999/xlink" width="460" height="675" viewBox="0 0 460 675">
    <defs>
        <path id="a" d="M0 0h426v543H0z"/>
    </defs>
    <g fill="none" fill-rule="evenodd" transform="rotate(3 11.463 656.602)">
        <mask id="b" fill="#fff">
            <use xlink:href="#a"/>
        </mask>
        <path fill="#E6E9ED" d="M224.804 581.029c11.722.163 11.458 12.26 55.454 12.873 49.142.684 69.507 25.6 31.634 25.073-76.503-1.065 16.31 30.409-59.862 29.349-76.17-1.06-39.776-14.885-112.452-15.897-42.49-.591-109.676-32.305 26.382-36.998 41.054-1.416-18.676-15.48 58.844-14.4z" mask="url(#b)" transform="rotate(-2 208.253 614.66)"/>
        <path fill="#FFBC4F" d="M187.252 26.166c.297-6.3 4.738-10.092 13.324-11.377 12.878-1.928 14.768 4.56 24.583 12.64 9.814 8.08 23.228 26.016 26.622 38.111 3.393 12.096-8.8 18.122-7.326 30.665 1.475 12.543 20.94 35.06 22.6 47.967 1.108 8.605-3.28 17.069-13.16 25.392l-64.932 6.569c-18.994-1.498-31.388-4.185-37.18-8.062-8.69-5.814-21.073-12.482-17.687-28.653 3.385-16.17 16.192-15.47 17.687-26.641 1.495-11.172-14.778-9.271-10.55-26.696 4.23-17.425 19.387-16.47 23.044-26.045 3.657-9.577-1.99-12.166-1.99-22.387 0-10.22 9-15.893 14.213-16.708 3.476-.543 7.06 1.199 10.752 5.225z" mask="url(#b)"/>
        <path fill="#FFCAB2" d="M214.901 88.053c-2.108 6.267-4.84 39.934-.365 42.349.612.33 6.741 3.325 18.388 8.983-7.767 12.467-16.347 18.209-25.74 17.227-14.089-1.473-28.264-5.283-33.653-13.223-5.39-7.94 2.969-7.94 13.828-14.254 7.239-4.21 7.708-17.903 1.408-41.082 19.964-7.555 28.675-7.555 26.134 0z" mask="url(#b)"/>
        <path fill="#FFDDC8" d="M202.948 109.15c11.105 0 20.37-21.847 21.717-35.57 3.1-31.581-8.91-39.564-21.632-39.564-24.231 0-27.231 19.225-26.42 37.274.813 18.05 12.586 37.86 26.335 37.86z" mask="url(#b)" transform="matrix(-1 0 0 1 401.659 0)"/>
        <path fill="#0072FF" d="M163.815 137.033l20.99-6.517c4.132 13.283 9.367 19.924 15.708 19.924 6.34 0 12.069-6.64 17.186-19.924 18.585 7.626 30.242 16.36 34.971 26.203 7.094 14.764 29.603 70.177 29.707 74.83.068 3.102-8.824 23.82-26.676 62.153l-7.673-7.489 13.08-51.328-13.08-25.941c-1.515 4.71-2.686 10.844-3.512 18.4-.826 7.556-1.965 22.545-3.417 44.968l-30.554 6.64-30.88-4.478c-3.664-23.536-6.062-37.705-7.195-42.506-1.133-4.801-4.018-16.487-8.655-35.057-14.023 43.288-22.796 64.838-26.32 64.65-3.524-.189-20.277-16.773-50.26-49.753l12.557-5.556 32.013 23.714c13.908-48.144 21.64-74.653 23.195-79.526 1.556-4.872 4.494-9.342 8.815-13.407z" mask="url(#b)"/>
        <path fill="#FFDDC8" d="M49.183 211.587c4.227.757 8.252.757 12.074 0 17.922-3.55 35.303-9.447 36.869-9.943 3.1-.98-2.942-3.347-4.227-3.587-1.016-.19-13.21-1.03-21.126-1.659-2.108-.167-3.913-3.323-5.122-3.444-3.833-.386-5.964-.352-6.394.102-7.916-.427-13.29.54-16.12 2.9-2.832 2.36-5.21 5.953-7.137 10.778l11.183 4.853z" mask="url(#b)" transform="matrix(-1 0 0 1 137 0)"/>
        <path fill="#FFDDC8" d="M240.061 318.763c3.78.68 7.378.68 10.796.002 7.127-1.413 14.158-3.244 19.892-4.88 7.156-2.041 10.825-9.245 11.602-9.491 2.772-.88-2.63-3.002-3.78-3.218-.684-.128-5.57 4.877-11.689 4.416-2.005-.151-3.985-.302-5.733-.442-1.884-.15-3.498-2.98-4.58-3.09-3.427-.346-5.332-.316-5.716.091-7.077-.384-11.882.481-14.413 2.597-2.53 2.115-4.657 5.335-6.378 9.66l10 4.355z" mask="url(#b)" transform="rotate(71 256.598 310.224)"/>
        <path fill="#004FD1" d="M198.085 277.37c20.088 0 23.099-1.157 31.737-5.058 4.19-1.893.355-63.952 7.83-72.356 8.306-9.337 7.283-23.75-3.07-43.237 3.029 2.145 5.2 3.217 6.517 3.217 1.974 0 7.302-1.845 3.417-9.244-6.641-12.649-28.472-16.192-27.245-18.244.299-.5.299-1.144 0-1.932 11.546 4.691 20.627 9.874 27.245 15.548 5.302 4.547 8.017 10.369 8.154 10.655 5.628 11.713 17.893 50.797 24.04 68.034 1.6 4.488 5.645 5.835 5.667 6.796.068 3.102-8.357 23.078-25.276 59.926l-6.965-3.702c4.843-15.28 8.5-27.77 10.971-37.47 2.472-9.7 2.472-14.84 0-15.418l-13.079-25.941c-1.515 4.71-2.686 10.844-3.512 18.4-.826 7.556-1.965 22.545-3.417 44.968l-30.554 6.64-30.88-4.478c-3.664-23.536-6.062-37.705-7.195-42.506-1.133-4.801-4.018-16.487-8.655-35.057-14.023 43.288-22.796 64.838-26.32 64.65-3.524-.189-20.277-16.773-50.26-49.753l50.26 43.067 26.32-66.07c.177 2.047.54 3.28 1.09 3.7.696.533.696 10.109 11.595 15.061 4.285 1.948 14.314 69.805 21.585 69.805z" mask="url(#b)"/>
        <path fill="#004FD1" d="M200.276 214.28c-1.645-1.503 4.461-5.628 7.885-5.628 3.425 0 7.356 4.284 5.471 5.629-.847.605-2.724-1.098-5.47-1.017-3.36.1-6.981 1.844-7.886 1.017z" mask="url(#b)"/>
        <path fill="#002375" d="M180.15 274.607c-6.944 16.862-10.416 35.445-10.416 55.75 0 13.537 8.651 55.984 18.953 127.343 3.434 23.783 8.705 66.682 15.813 128.699h13.875v-9.652l6.784-1.56c21.536-140.213 32.86-221.086 33.973-242.62 1.113-21.533-4.985-41.792-18.294-60.776l-30.405 4.838-30.282-2.022z" mask="url(#b)"/>
        <path fill="#001644" d="M180.15 274.607c14.587 4.11 24.514 7.028 29.782 8.758 14.282 4.688 34.947 10.67 38.096 30.053 6.679 41.102-22.825 221.644-22.87 231.29-.018 4.169 7.766-163.778 7.766-179.418 0-4.6-.324-15.35-1.5-22.629-.54-3.346-3.362-9.793-5.911-11.147-1.88-.999-3.237.457-7.307.457s-8.62-4.51-9.774-2.458c-1.13 2.007 4.222 38.837 4.69 49.551 1 22.904 4.794 85.731 1 200.144-.078 2.325-3.285 4.722-9.622 7.19h13.875v-9.651l6.784-1.56c21.536-140.213 32.86-221.086 33.973-242.62 1.113-21.533-4.985-41.792-18.294-60.776l-30.405 4.838-30.282-2.022z" mask="url(#b)"/>
        <path fill="#010817" d="M226.23 572.528c-1.096 1.016-2.74 1.525-4.93 1.525-.671 0-1.724-.15-3.158-.448l-.02 7.915c-1.29 4.252-2.117 7.24-2.48 8.962-.203.967 4.352 13.245 4.96 16.412.817 4.253 8.277 6.501 22.379 6.745.006-1.704-.335-5.075-1.023-10.113-.447-3.27-3.863-9.44-7.926-15.185-1.278-1.807-3.326-4.406-4.286-7.695-.64-2.193-1.813-4.9-3.517-8.118z" mask="url(#b)"/>
        <path fill="#010817" d="M218.642 581.39c-2.762 1.016-5.238 1.524-7.428 1.524-2.19 0-4.595-.705-7.214-2.116-.87 6.235-1.655 10.625-2.357 13.172-3.07 11.137-5.751 16.983-5.143 20.15.817 4.253 5.339 9.814 13.565 16.683 9.612-4.716 15.116-9.466 16.512-14.248 1.152-3.946 0-7.861-3.209-18.708-.68-2.298-1.75-5.05-2.71-8.34-.64-2.193-1.311-4.899-2.016-8.117z" mask="url(#b)"/>
        <path fill="#AFB5BA" d="M177.5 266.197c10.417 2.67 21.167 4.003 32.25 4.003 11.083 0 22-1.668 32.75-5.003.51 3.335 1.177 6.013 2 8.031.823 2.019 1.823 4.679 3 7.981-13.094 3.336-25.348 5.004-36.76 5.004-11.414 0-22.827-1.334-34.24-4.003 1-2.669 1.5-5.338 1.5-8.006 0-2.67-.167-5.338-.5-8.007z" mask="url(#b)"/>
        <ellipse cx="209.75" cy="278.957" fill="#FFC95C" mask="url(#b)" rx="9.75" ry="12.76"/>
        <path fill="#FFBC4F" d="M193.414 38.158c.015 4.893 3.544 9.942 10.586 15.147 7.042 5.206 15.863 9.284 26.461 12.235l-3.448-27.382-30.6-10.375-16.262 6.233-13.275 40.38c4.595-9.254 10.447-15.452 17.556-18.594 7.11-3.142 10.104-9.023 8.982-17.644z" mask="url(#b)"/>
    </g>
</svg>
